# xmcd
#
# Track frame offsets: 
#        150
#        11440
#        25455
#        37832
#        49605
#        64367
#        73732
#        87350
#        101740
#        113812
#        122845
#        132717
#        145312
#        157607
#        167232
#        179160
#        188530
#        199187
#        209610
#        220925
#        229570
#        239010
#        250577
#        260860
#        270655
#
# Disc length: 3757 seconds
#
# Revision: 7
# Processed by: cddbd v1.5.2PL0 Copyright (c) Steve Scherf et al.
# Submitted via: ExactAudioCopyFreeDBPlugin 1.0
#
DISCID=7a0eab19
DTITLE=Bill Monroe - Anthology [CD1 1950-1960)
DYEAR=2003
DGENRE=Bluegrass
TTITLE0=New Mule Skinner Blues
TTITLE1=My Little Georgia Rose
TTITLE2=Uncle Pen
TTITLE3=Raw Hide
TTITLE4=Kentucky Waltz
TTITLE5=When the Cactus is in Bloom
TTITLE6=Get Down on Your Knees and Pray
TTITLE7=In the Pines
TTITLE8=Footprints in the Snow
TTITLE9=Walking in Jerusalem (Just Like John)
TTITLE10=Get Up John
TTITLE11=On and On
TTITLE12=I'm Working on a Building
TTITLE13=Blue Moon of Kentucky
TTITLE14=Roanoke
TTITLE15=Goodbye Old Pal
TTITLE16=Molly and Tenbrooks
TTITLE17=I'm Sittin' on Top of the World
TTITLE18=I Saw the Light
TTITLE19=Scotland
TTITLE20=Panhandle Country
TTITLE21=Gotta Travel On
TTITLE22=Big Mon
TTITLE23=Linda Lou
TTITLE24=Lonesome Road Blues
EXTD=YEAR: 2003
EXTT0=
EXTT1=
EXTT2=
EXTT3=
EXTT4=
EXTT5=
EXTT6=
EXTT7=
EXTT8=
EXTT9=
EXTT10=
EXTT11=
EXTT12=
EXTT13=
EXTT14=
EXTT15=
EXTT16=
EXTT17=
EXTT18=
EXTT19=
EXTT20=
EXTT21=
EXTT22=
EXTT23=
EXTT24=
PLAYORDER=
